<svg width="72" height="72" viewBox="0 0 72 72" fill="none" xmlns="http://www.w3.org/2000/svg">
<path d="M41.4588 41.6463L34.0235 34.211C31.2 31.3875 31.2 26.8699 34.0235 24.1404C36.8471 21.3169 41.3647 21.3169 44.0941 24.1404L52.1882 32.2346" stroke="#161616" stroke-width="2.5" stroke-linecap="round" stroke-linejoin="round"/>
<path d="M50.4941 32.1404C55.2941 32.1404 59.0588 35.9993 59.0588 40.7993V54.4463C59.0588 54.5404 58.9647 54.6346 58.8706 54.6346H42.1177C42.0235 54.6346 41.9294 54.5404 41.9294 54.4463V40.7993C41.8353 35.9993 45.6941 32.1404 50.4941 32.1404Z" stroke="#161616" stroke-width="2.5" stroke-linecap="round" stroke-linejoin="round"/>
<path d="M25.3647 17.364L36.847 22.3522" stroke="#161616" stroke-width="2.5" stroke-linecap="round" stroke-linejoin="round"/>
<path d="M31.9529 29.6934L26.0235 27.0581" stroke="#161616" stroke-width="2.5" stroke-linecap="round" stroke-linejoin="round"/>
<path d="M21.4117 35.811L14.6353 32.8934C14.3529 32.7993 14.2588 32.5169 14.3529 32.2346L19.8117 19.5287C20.7529 17.364 23.2 16.4228 25.3647 17.364C27.5294 18.3052 28.4706 20.7522 27.5294 22.9169L22.0706 35.5287C21.9765 35.811 21.6941 35.9052 21.4117 35.811Z" stroke="#161616" stroke-width="2.5" stroke-linecap="round" stroke-linejoin="round"/>
<path d="M19.7176 40.9875L20.1882 39.8581C21.1294 37.6934 20.0941 35.2463 18.0235 34.3052C15.8588 33.364 13.4118 34.3993 12.4706 36.4699L12 37.5993" stroke="#161616" stroke-width="2.5" stroke-linecap="round" stroke-linejoin="round"/>
</svg>
