<svg width="72" height="72" viewBox="0 0 72 72" fill="none" xmlns="http://www.w3.org/2000/svg">
<path fill-rule="evenodd" clip-rule="evenodd" d="M41.5 19.4C42.4 19.4 43.2 18.7 43.2 17.7C43.2 16.7 42.5 16 41.5 16C40.6 16 39.8 16.7 39.8 17.7C39.8 18.6 40.5 19.3 41.4 19.4H41.5Z" fill="#161616"/>
<path fill-rule="evenodd" clip-rule="evenodd" d="M37.8 24.3C37.8 25.2 38.6 26 39.5 26C40.4 26 41.2 25.2 41.2 24.3C41.2 23.4 40.4 22.6 39.5 22.6C38.6 22.6 37.9 23.3 37.8 24.2V24.3Z" fill="#161616"/>
<path fill-rule="evenodd" clip-rule="evenodd" d="M25.5 28.1C25.5 29 26.3 29.8 27.2 29.8C28.1 29.8 28.9 29 28.9 28.1C28.9 27.2 28.1 26.4 27.2 26.4C26.3 26.4 25.5 27.2 25.5 28.1Z" fill="#161616"/>
<path fill-rule="evenodd" clip-rule="evenodd" d="M22.4 20.7C23.3 20.7 24 19.9 24 19C24 18.1 23.3 17.3 22.3 17.3C21.5 17.3 20.7 18.1 20.7 19C20.7 19.9 21.4 20.7 22.4 20.7Z" fill="#161616"/>
<path fill-rule="evenodd" clip-rule="evenodd" d="M29.7 22C30.6 22 31.4 21.3 31.4 20.4C31.4 19.5 30.7 18.7 29.8 18.7C28.9 18.7 28.1 19.4 28.1 20.3C28 21.2 28.7 22 29.7 22C29.6 22 29.7 22 29.7 22Z" fill="#161616"/>
<path fill-rule="evenodd" clip-rule="evenodd" d="M28.1 36.7C28.1 37.6 28.8 38.4 29.8 38.4C30.7 38.4 31.5 37.7 31.5 36.7C31.5 35.8 30.8 35 29.8 35C29.8 35 29.8 35 29.7 35C28.8 35 28.1 35.7 28.1 36.7C28 36.6 28 36.6 28.1 36.7Z" fill="#161616"/>
<path fill-rule="evenodd" clip-rule="evenodd" d="M38.3 43.2C39.2 43.2 40 42.4 40 41.5C40 40.6 39.2 39.8 38.3 39.8C37.4 39.8 36.6 40.6 36.6 41.5C36.6 42.4 37.3 43.2 38.2 43.2C38.2 43.2 38.2 43.2 38.3 43.2Z" fill="#161616"/>
<path fill-rule="evenodd" clip-rule="evenodd" d="M34.2 33.7C35.1 33.7 35.9 32.9 35.9 32C35.9 31.1 35.1 30.3 34.2 30.3C33.3 30.3 32.5 31.1 32.5 32C32.5 32.9 33.3 33.7 34.2 33.7Z" fill="#161616"/>
<path fill-rule="evenodd" clip-rule="evenodd" d="M52.2 29.8C53.1 29.8 53.9 29 53.9 28.1C53.9 27.2 53.1 26.4 52.2 26.4C51.3 26.4 50.5 27.2 50.5 28.1C50.5 29 51.3 29.8 52.2 29.8Z" fill="#161616"/>
<path fill-rule="evenodd" clip-rule="evenodd" d="M46.4 37.8C45.5 37.8 44.7 38.5 44.7 39.5C44.7 40.5 45.4 41.2 46.4 41.2C47.4 41.2 48.1 40.5 48.1 39.5C48.1 38.6 47.4 37.8 46.4 37.8Z" fill="#161616"/>
<path fill-rule="evenodd" clip-rule="evenodd" d="M39.9 47.6C39.9 46.7 39.1 45.9 38.2 45.9C37.3 45.9 36.5 46.7 36.5 47.6C36.5 48.5 37.3 49.3 38.2 49.3C39.1 49.4 39.8 48.7 39.9 47.8C39.9 47.7 39.9 47.7 39.9 47.6Z" fill="#161616"/>
<path fill-rule="evenodd" clip-rule="evenodd" d="M37.3 52.6C36.4 52.6 35.6 53.3 35.6 54.3C35.6 55.3 36.3 56 37.3 56C38.3 56 39 55.3 39 54.3C39 53.4 38.2 52.6 37.3 52.6Z" fill="#161616"/>
<path fill-rule="evenodd" clip-rule="evenodd" d="M47.3 49.7C46.4 49.7 45.6 50.5 45.6 51.4C45.6 52.3 46.4 53.1 47.3 53.1C48.2 53.1 49 52.3 49 51.4C49 50.5 48.2 49.7 47.3 49.7Z" fill="#161616"/>
<path fill-rule="evenodd" clip-rule="evenodd" d="M45.5 30.8C44.6 30.8 43.8 31.6 43.8 32.5C43.8 33.4 44.6 34.2 45.5 34.2C46.4 34.2 47.2 33.4 47.2 32.5C47.2 31.6 46.5 30.8 45.6 30.8H45.5Z" fill="#161616"/>
<path fill-rule="evenodd" clip-rule="evenodd" d="M54.4 38.4C53.5 38.4 52.7 39.1 52.7 40C52.7 40.9 53.4 41.7 54.3 41.7C55.2 41.7 56 41 56 40.1C56.1 39.2 55.4 38.5 54.4 38.4C54.5 38.4 54.4 38.4 54.4 38.4Z" fill="#161616"/>
<path fill-rule="evenodd" clip-rule="evenodd" d="M50.4 43.5C49.5 43.5 48.7 44.3 48.7 45.2C48.7 46.1 49.5 46.9 50.4 46.9C51.3 46.9 52.1 46.1 52.1 45.2C52.2 44.3 51.5 43.6 50.6 43.5C50.6 43.5 50.5 43.5 50.4 43.5Z" fill="#161616"/>
<path fill-rule="evenodd" clip-rule="evenodd" d="M46.4 21.5C45.5 21.5 44.7 22.2 44.7 23.2C44.7 24.2 45.4 24.9 46.4 24.9C47.4 24.9 48 24.1 48 23.2C48 22.2 47.3 21.5 46.4 21.5Z" fill="#161616"/>
<path fill-rule="evenodd" clip-rule="evenodd" d="M24.4 40.3C25.3 40.3 26.1 39.6 26.1 38.6C26.1 37.6 25.4 36.9 24.4 36.9C23.4 36.9 22.7 37.6 22.7 38.6C22.7 39.5 23.4 40.2 24.3 40.3H24.4Z" fill="#161616"/>
<path fill-rule="evenodd" clip-rule="evenodd" d="M18.1 33.3C19 33.3 19.8 32.5 19.8 31.6C19.8 30.7 19 29.9 18.1 29.9C17.2 29.9 16.4 30.7 16.4 31.6C16.4 32.5 17.2 33.3 18.1 33.3Z" fill="#161616"/>
<path fill-rule="evenodd" clip-rule="evenodd" d="M17.7 43.6C16.8 43.6 16 44.4 16 45.3C16 46.2 16.8 47 17.7 47C18.6 47 19.4 46.2 19.4 45.3C19.4 44.4 18.6 43.6 17.7 43.6Z" fill="#161616"/>
<path fill-rule="evenodd" clip-rule="evenodd" d="M27 46.9C26.1 46.9 25.3 47.6 25.3 48.6C25.3 49.5 26 50.3 27 50.3C27.9 50.3 28.7 49.6 28.7 48.6C28.6 47.7 27.9 46.9 27 46.9Z" fill="#161616"/>
</svg>
