<svg width="72" height="72" viewBox="0 0 72 72" fill="none" xmlns="http://www.w3.org/2000/svg">
<path d="M17.0456 17H55.1633C55.728 17 56.2927 17.4706 56.2927 18.0353V25.4706C56.2927 26.0353 55.8221 26.5059 55.1633 26.5059H17.0456C16.4809 26.5059 16.0103 26.0353 16.0103 25.4706V18.1294C15.9162 17.5647 16.4809 17 17.0456 17Z" stroke="#161616" stroke-width="2.5" stroke-linecap="round" stroke-linejoin="round"/>
<path d="M50.175 23.3059C51.0067 23.3059 51.6809 22.6317 51.6809 21.8C51.6809 20.9683 51.0067 20.2941 50.175 20.2941C49.3434 20.2941 48.6692 20.9683 48.6692 21.8C48.6692 22.6317 49.3434 23.3059 50.175 23.3059Z" fill="#161616"/>
<path d="M17.0456 45.1412H55.1633C55.728 45.1412 56.2927 45.6118 56.2927 46.2706V53.7059C56.2927 54.2706 55.8221 54.8353 55.1633 54.8353H17.0456C16.4809 54.8353 16.0103 54.3647 16.0103 53.7059V46.2706C15.9162 45.6118 16.4809 45.1412 17.0456 45.1412Z" stroke="#161616" stroke-width="2.5" stroke-linecap="round" stroke-linejoin="round"/>
<path d="M50.175 51.4471C51.0067 51.4471 51.6809 50.7728 51.6809 49.9412C51.6809 49.1095 51.0067 48.4353 50.175 48.4353C49.3434 48.4353 48.6692 49.1095 48.6692 49.9412C48.6692 50.7728 49.3434 51.4471 50.175 51.4471Z" fill="#161616"/>
<path d="M17.0456 31.1176H55.1633C55.728 31.1176 56.2927 31.5882 56.2927 32.2471V39.6823C56.2927 40.2471 55.8221 40.8118 55.1633 40.8118H17.0456C16.4809 40.8118 16.0103 40.3412 16.0103 39.6823V32.2471C15.9162 31.5882 16.4809 31.1176 17.0456 31.1176Z" stroke="#161616" stroke-width="2.5" stroke-linecap="round" stroke-linejoin="round"/>
<path d="M50.175 37.3294C51.0067 37.3294 51.6809 36.6552 51.6809 35.8235C51.6809 34.9918 51.0067 34.3176 50.175 34.3176C49.3434 34.3176 48.6692 34.9918 48.6692 35.8235C48.6692 36.6552 49.3434 37.3294 50.175 37.3294Z" fill="#161616"/>
<path d="M44.3397 37.3294C45.1714 37.3294 45.8456 36.6552 45.8456 35.8235C45.8456 34.9918 45.1714 34.3176 44.3397 34.3176C43.5081 34.3176 42.8339 34.9918 42.8339 35.8235C42.8339 36.6552 43.5081 37.3294 44.3397 37.3294Z" fill="#161616"/>
</svg>
