<svg width="72" height="72" viewBox="0 0 72 72" fill="none" xmlns="http://www.w3.org/2000/svg">
<path d="M37.8093 25.2152C40.0779 25.2152 41.9169 23.3761 41.9169 21.1076C41.9169 18.839 40.0779 17 37.8093 17C35.5407 17 33.7017 18.839 33.7017 21.1076C33.7017 23.3761 35.5407 25.2152 37.8093 25.2152Z" stroke="#161616" stroke-width="2.5" stroke-miterlimit="10"/>
<path d="M52.7726 32.3545C54.7171 32.3545 56.2934 30.7782 56.2934 28.8337C56.2934 26.8893 54.7171 25.313 52.7726 25.313C50.8281 25.313 49.2518 26.8893 49.2518 28.8337C49.2518 30.7782 50.8281 32.3545 52.7726 32.3545Z" stroke="#161616" stroke-width="2.5" stroke-miterlimit="10"/>
<path d="M19.2274 34.7017C21.0098 34.7017 22.4548 33.2568 22.4548 31.4743C22.4548 29.6919 21.0098 28.2469 19.2274 28.2469C17.4449 28.2469 16 29.6919 16 31.4743C16 33.2568 17.4449 34.7017 19.2274 34.7017Z" stroke="#161616" stroke-width="2.5" stroke-miterlimit="10"/>
<path d="M37.4181 54.6528C39.3086 54.6528 40.8411 53.1203 40.8411 51.2298C40.8411 49.3394 39.3086 47.8068 37.4181 47.8068C35.5276 47.8068 33.9951 49.3394 33.9951 51.2298C33.9951 53.1203 35.5276 54.6528 37.4181 54.6528Z" stroke="#161616" stroke-width="2.5" stroke-miterlimit="10"/>
<path d="M40.9389 32.2567L38.7873 24.824" stroke="#161616" stroke-width="2.5" stroke-miterlimit="10"/>
<path d="M46.4156 33.9193L49.9364 30.9853" stroke="#161616" stroke-width="2.5" stroke-miterlimit="10"/>
<path d="M40.1565 42.7213L38.2983 47.8068" stroke="#161616" stroke-width="2.5" stroke-miterlimit="10"/>
<path d="M22.4548 32.2567L37.0269 36.0709" stroke="#161616" stroke-width="2.5" stroke-miterlimit="10"/>
<path d="M42.3081 42.7213C45.2788 42.7213 47.687 40.313 47.687 37.3423C47.687 34.3716 45.2788 31.9633 42.3081 31.9633C39.3373 31.9633 36.9291 34.3716 36.9291 37.3423C36.9291 40.313 39.3373 42.7213 42.3081 42.7213Z" stroke="#161616" stroke-width="2.5" stroke-miterlimit="10"/>
</svg>
