<svg width="30" height="30" viewBox="0 0 30 30" fill="none" xmlns="http://www.w3.org/2000/svg">
<path d="M0 2.20039C0 1.01896 0.993047 0.0599976 2.21719 0.0599976H27.7828C29.0074 0.0599976 30 1.01896 30 2.20039V27.8C30 28.9817 29.0074 29.94 27.7828 29.94H2.21719C0.993164 29.94 0 28.9819 0 27.8003V2.20004V2.20039Z" fill="#006699"/>
<path d="M9.11668 25.0656V11.6135H4.62746V25.0656H9.11715H9.11668ZM6.87301 9.77719C8.43817 9.77719 9.41258 8.74422 9.41258 7.45331C9.38328 6.13299 8.43817 5.12886 6.90278 5.12886C5.36633 5.12886 4.36285 6.13299 4.36285 7.4532C4.36285 8.74411 5.33692 9.77707 6.8436 9.77707H6.87266L6.87301 9.77719ZM11.6015 25.0656H16.0904V17.5542C16.0904 17.1526 16.1197 16.7501 16.2383 16.4633C16.5627 15.6597 17.3013 14.8278 18.5417 14.8278C20.1657 14.8278 20.8157 16.0613 20.8157 17.8699V25.0656H25.3045V17.3526C25.3045 13.2209 23.0901 11.2981 20.1366 11.2981C17.7152 11.2981 16.6517 12.6461 16.0609 13.5642H16.0907V11.614H11.6018C11.6604 12.876 11.6014 25.0661 11.6014 25.0661L11.6015 25.0656Z" fill="white"/>
</svg>
