<svg width="37" height="30" viewBox="0 0 37 30" fill="none" xmlns="http://www.w3.org/2000/svg">
<path d="M36.8571 3.55123C35.5012 4.15369 34.0436 4.56068 32.5143 4.74378C34.0753 3.8065 35.2745 2.32233 35.839 0.55373C34.3778 1.42179 32.7595 2.05192 31.037 2.39155C29.6578 0.919555 27.6926 0 25.5177 0C21.3417 0 17.9558 3.39084 17.9558 7.57332C17.9558 8.16692 18.0227 8.74501 18.1517 9.29929C11.8672 8.98348 6.29552 5.96825 2.56594 1.38616C1.91504 2.50469 1.54204 3.80558 1.54204 5.19359C1.54204 7.82121 2.87701 10.1393 4.906 11.4974C3.66649 11.4581 2.50051 11.1174 1.48104 10.5502C1.48018 10.5817 1.48018 10.6135 1.48018 10.6454C1.48018 14.3148 4.08673 17.3756 7.54596 18.0718C6.91146 18.2449 6.24343 18.3374 5.55383 18.3374C5.06657 18.3374 4.59297 18.2898 4.13114 18.2016C5.09348 21.2103 7.88597 23.3999 11.195 23.4609C8.60708 25.4923 5.34669 26.7031 1.80379 26.7031C1.19344 26.7031 0.591559 26.6671 0 26.5972C3.34645 28.7462 7.32113 30 11.5914 30C25.5 30 33.1061 18.4598 33.1061 8.45135C33.1061 8.12299 33.0987 7.79647 33.0841 7.47143C34.5614 6.40385 35.8433 5.0701 36.857 3.55123H36.8571Z" fill="#2AA9E0"/>
</svg>
