<svg width="44" height="43" viewBox="0 0 44 43" fill="none" xmlns="http://www.w3.org/2000/svg">
<path d="M22.6867 35.9607L13.7728 35.798C10.8867 35.7413 7.99337 35.8545 5.16384 35.267C0.859468 34.3893 0.554531 30.0856 0.235446 26.4756C-0.20422 21.4004 -0.0340119 16.2331 0.795694 11.2002C1.26409 8.37629 3.10742 6.69122 5.95807 6.50785C15.5811 5.84238 25.2681 5.92125 34.8698 6.23171C35.8839 6.26017 36.9049 6.41573 37.9048 6.5928C42.8406 7.45641 42.961 12.3335 43.2809 16.439C43.6 20.5869 43.4653 24.7562 42.8554 28.8759C42.3661 32.2868 41.43 35.1473 37.4793 35.4234C32.5293 35.7845 27.693 36.0752 22.7291 35.9826C22.7294 35.9607 22.7009 35.9607 22.6867 35.9607ZM17.4462 27.325C21.1764 25.1872 24.8354 23.085 28.5443 20.9615C24.8071 18.8237 21.1551 16.7215 17.4462 14.598V27.325Z" fill="#FF0000"/>
</svg>
