<svg width="20" height="20" viewBox="0 0 20 20" fill="none" xmlns="http://www.w3.org/2000/svg">
<path fill-rule="evenodd" clip-rule="evenodd" d="M13.784 7.63019C14.1746 7.23966 14.1746 6.6065 13.784 6.21597C13.3935 5.82545 12.7603 5.82545 12.3698 6.21597L10 8.58579L7.63018 6.21597C7.23966 5.82545 6.60649 5.82545 6.21597 6.21597C5.82544 6.6065 5.82544 7.23966 6.21597 7.63019L8.58578 10L6.21598 12.3698C5.82545 12.7603 5.82545 13.3935 6.21598 13.784C6.6065 14.1745 7.23966 14.1745 7.63019 13.784L10 11.4142L12.3698 13.784C12.7603 14.1745 13.3935 14.1745 13.784 13.784C14.1745 13.3935 14.1745 12.7603 13.784 12.3698L11.4142 10L13.784 7.63019Z" fill="#161616"/>
<circle cx="10" cy="10" r="9" stroke="#161616" stroke-width="2"/>
</svg>
