<svg width="20" height="20" viewBox="0 0 20 20" fill="none" xmlns="http://www.w3.org/2000/svg">
<g clip-path="url(#clip0_293_1642)">
<path d="M18.3436 19L1.65636 19C0.90385 19 0.420965 18.2002 0.771444 17.5342L9.11508 1.68135C9.49 0.969008 10.51 0.96901 10.8849 1.68135L19.2286 17.5343C19.579 18.2002 19.0961 19 18.3436 19Z" fill="#161616"/>
<mask id="path-2-inside-1_293_1642" fill="white">
<path fill-rule="evenodd" clip-rule="evenodd" d="M9 12.5C9 13.0523 9.44772 13.5 10 13.5C10.5523 13.5 11 13.0523 11 12.5L11 8C11 7.44772 10.5523 7 10 7C9.44772 7 9 7.44772 9 8V12.5ZM10 15C9.44772 15 9 15.4477 9 16C9 16.5523 9.44772 17 10 17C10.5523 17 11 16.5523 11 16C11 15.4477 10.5523 15 10 15Z"/>
</mask>
<path fill-rule="evenodd" clip-rule="evenodd" d="M9 12.5C9 13.0523 9.44772 13.5 10 13.5C10.5523 13.5 11 13.0523 11 12.5L11 8C11 7.44772 10.5523 7 10 7C9.44772 7 9 7.44772 9 8V12.5ZM10 15C9.44772 15 9 15.4477 9 16C9 16.5523 9.44772 17 10 17C10.5523 17 11 16.5523 11 16C11 15.4477 10.5523 15 10 15Z" fill="white"/>
<path d="M11 12.5H10H11ZM11 8H12H11ZM11 16H10H11ZM10 12.5H10H8C8 13.6046 8.89543 14.5 10 14.5V12.5ZM10 12.5H10V14.5C11.1046 14.5 12 13.6046 12 12.5H10ZM10 8L10 12.5H12L12 8L10 8ZM10 8H12C12 6.89543 11.1046 6 10 6V8ZM10 8L10 8V6C8.89543 6 8 6.89543 8 8H10ZM10 12.5V8H8L8 12.5H10ZM10 16H10L10 14C8.89543 14 8 14.8954 8 16H10ZM10 16H8C8 17.1046 8.89543 18 10 18V16ZM10 16H10V18C11.1046 18 12 17.1046 12 16H10ZM10 16H10H12C12 14.8954 11.1046 14 10 14L10 16Z" fill="white" mask="url(#path-2-inside-1_293_1642)"/>
</g>
<defs>
<clipPath id="clip0_293_1642">
<rect width="20" height="20" fill="white"/>
</clipPath>
</defs>
</svg>
