<svg width="20" height="20" viewBox="0 0 20 20" fill="none" xmlns="http://www.w3.org/2000/svg">
<path fill-rule="evenodd" clip-rule="evenodd" d="M9 12.5C9 13.0523 9.44772 13.5 10 13.5C10.5523 13.5 11 13.0523 11 12.5V9.5C11 8.94771 10.5523 8.5 10 8.5C9.44771 8.5 9 8.94772 9 9.5V12.5ZM10 14.5C9.44771 14.5 9 14.9477 9 15.5C9 16.0523 9.44771 16.5 10 16.5C10.5523 16.5 11 16.0523 11 15.5C11 14.9477 10.5523 14.5 10 14.5Z" fill="#161616"/>
<path d="M18.1695 19L1.83045 19C1.45366 19 1.21226 18.5991 1.38855 18.2661L9.55811 2.83469C9.74591 2.47995 10.2541 2.47995 10.4419 2.83469L18.6114 18.2661C18.7877 18.5991 18.5463 19 18.1695 19Z" stroke="#161616" stroke-width="2"/>
</svg>
